USFL
nRows=246
nColumns=2
inDegrees=yes
endheader
time	tib_ant_r	
3.22681	 87.468241	
3.26008	 87.465654	
3.29335	 87.448632	
3.32661	 87.436056	
3.35988	 87.443067	
3.39315	 87.431040	
3.42641	 87.449415	
3.45968	 87.439449	
3.49294	 87.444618	
3.52621	 87.441526	
3.55948	 87.431577	
3.59274	 87.473095	
3.62601	 87.466176	
3.65927	 87.454586	
3.69254	 87.475462	
3.72581	 87.479346	
3.75907	 87.498598	
3.79234	 87.546103	
3.8256	 87.622813	
3.85887	 87.620947	
3.89214	 87.622522	
3.9254	 87.623895	
3.95867	 87.654986	
3.99194	 87.622581	
4.0252	 87.606316	
4.05847	 87.604443	
4.09173	 87.621974	
4.125	 87.586378	
4.15827	 87.590532	
4.19153	 87.534534	
4.2248	 87.539038	
4.25806	 87.536179	
4.29133	 87.542923	
4.3246	 87.559484	
4.35786	 87.571672	
4.39113	 87.536301	
4.4244	 87.569551	
4.45766	 87.548207	
4.49093	 87.552124	
4.52419	 87.532032	
4.55746	 87.576515	
4.59073	 87.556719	
4.62399	 87.568815	
4.65726	 87.576151	
4.69052	 87.592951	
4.72379	 87.583740	
4.75706	 87.577076	
4.79032	 87.590634	
4.82359	 87.588944	
4.85685	 87.584790	
4.89012	 87.589047	
4.92339	 87.587066	
4.95665	 87.552676	
4.98992	 87.557672	
5.02319	 87.575805	
5.05645	 87.553997	
5.08972	 87.582809	
5.12298	 87.582096	
5.15625	 87.572449	
5.18952	 87.559873	
5.22278	 87.570505	
5.25605	 87.558981	
5.28931	 87.540590	
5.32258	 87.540508	
5.35585	 87.535321	
5.38911	 87.559787	
5.42238	 87.562606	
5.45565	 87.577909	
5.48891	 87.476635	
5.52218	 87.244913	
5.55544	 87.004685	
5.58871	 75.905065	
5.62198	 75.402942	
5.65524	 77.510837	
5.68851	 76.647234	
5.72177	 76.260798	
5.75504	 76.488594	
5.78831	 75.862825	
5.82157	 75.444008	
5.85484	 76.029558	
5.8881	 75.507389	
5.92137	 75.550623	
5.95464	 75.087042	
5.9879	 75.177315	
6.02117	 75.248172	
6.05444	 74.946373	
6.0877	 70.108234	
6.12097	 70.324577	
6.15423	 70.420419	
6.1875	 70.443083	
6.22077	 70.332714	
6.25403	 70.443069	
6.2873	 70.595700	
6.32056	 70.574454	
6.35383	 70.546094	
6.3871	 70.477469	
6.42036	 70.615942	
6.45363	 70.635799	
6.4869	 70.651322	
6.52016	 70.631535	
6.55343	 70.689572	
6.58669	 70.642233	
6.61996	 70.639218	
6.65323	 70.649903	
6.68649	 70.798110	
6.71976	 70.751405	
6.75302	 70.692533	
6.78629	 70.682318	
6.81956	 70.732008	
6.85282	 70.746924	
6.88609	 70.791057	
6.91935	 70.768549	
6.95262	 70.693328	
6.98589	 70.706577	
7.01915	 70.660455	
7.05242	 70.663309	
7.08569	 70.709001	
7.11895	 70.694316	
7.15222	 70.694724	
7.18548	 70.730764	
7.21875	 70.670535	
7.25202	 70.715187	
7.28528	 70.682418	
7.31855	 70.684743	
7.35181	 70.527839	
7.38508	 70.604838	
7.41835	 70.580459	
7.45161	 70.548647	
7.48488	 70.737552	
7.51815	 70.777256	
7.55141	 70.724252	
7.58468	 70.744075	
7.61794	 70.805011	
7.65121	 70.723898	
7.68448	 70.800736	
7.71774	 70.779805	
7.75101	 70.843240	
7.78427	 70.799228	
7.81754	 70.817933	
7.85081	 70.891757	
7.88407	 70.947559	
7.91734	 70.901188	
7.9506	 70.964205	
7.98387	 71.051767	
8.01714	 71.099268	
8.0504	 71.097145	
8.08367	 71.071005	
8.11694	 71.165617	
8.1502	 71.126349	
8.18347	 71.132649	
8.21673	 71.106547	
8.25	 71.146219	
8.28327	 71.177048	
8.31653	 71.218871	
8.3498	 71.093146	
8.38306	 71.155464	
8.41633	 71.155057	
8.4496	 71.118493	
8.48286	 71.116883	
8.51613	 71.156960	
8.5494	 71.041338	
8.58266	 71.125246	
8.61593	 71.115769	
8.64919	 71.083760	
8.68246	 71.125784	
8.71573	 71.070064	
8.74899	 71.205883	
8.78226	 71.219439	
8.81552	 71.172071	
8.84879	 71.137767	
8.88206	 71.202550	
8.91532	 71.225449	
8.94859	 71.221517	
8.98185	 71.259616	
9.01512	 71.261867	
9.04839	 71.238360	
9.08165	 71.244343	
9.11492	 71.389223	
9.14819	 71.406150	
9.18145	 71.425434	
9.21472	 71.428879	
9.24798	 71.463012	
9.28125	 71.309299	
9.31452	 71.365467	
9.34778	 71.348741	
9.38105	 71.382937	
9.41431	 71.437585	
9.44758	 71.382731	
9.48085	 71.375857	
9.51411	 71.410940	
9.54738	 71.351996	
9.58065	 71.384875	
9.61391	 71.451872	
9.64718	 71.360233	
9.68044	 71.377365	
9.71371	 71.511642	
9.74698	 71.524072	
9.78024	 71.548916	
9.81351	 71.552119	
9.84677	 71.603622	
9.88004	 71.570185	
9.91331	 71.554292	
9.94657	 71.528617	
9.97984	 71.528310	
10.0131	 71.577059	
10.0464	 71.537724	
10.0796	 71.575075	
10.1129	 71.490156	
10.1462	 71.488049	
10.1794	 71.540482	
10.2127	 71.523202	
10.246	 71.476067	
10.2792	 71.542546	
10.3125	 72.133292	
10.3458	 72.572309	
10.379	 72.700039	
10.4123	 72.350831	
10.4456	 72.110042	
10.4788	 72.801541	
10.5121	 72.398842	
10.5454	 71.929328	
10.5786	 72.086001	
10.6119	 72.464689	
10.6452	 72.939582	
10.6784	 72.906606	
10.7117	 81.486975	
10.745	 80.803417	
10.7782	 80.416955	
10.8115	 83.536469	
10.8448	 83.271973	
10.878	 83.229120	
10.9113	 83.229029	
10.9446	 83.215759	
10.9778	 83.296195	
11.0111	 83.266484	
11.0444	 83.260604	
11.0776	 83.309658	
11.1109	 83.432883	
11.1442	 83.533676	
11.1774	 83.542646	
11.2107	 83.513711	
11.244	 83.561007	
11.2772	 83.560952	
11.3105	 83.629507	
11.3437	 83.644404	
11.377	 83.632977	
